<svg width="265.584" height="156.684" viewBox="0 0 70.269 41.456" xmlns="http://www.w3.org/2000/svg">
  <g transform="translate(.025 -9.242)" stroke-linecap="round" stroke-linejoin="round">
    <path d="M3.5 11.922s-3 5.838-3 9v10c0 3.162 3 9 3 9 .15.447.312 1.01 1 1h2v-30h-2m-1 1c.15-.447.312-1.01 1-1" fill="#979797" stroke="#979797"/>
    <rect x="10.539" y="9.947" width="11.921" height="1.921" rx=".511" ry=".57" fill="#979797" stroke="#979797" stroke-dashoffset="1" stroke-width="1.079"/>
    <rect x="10.539" y="40.092" width="11.921" height="1.921" rx=".511" ry=".57" fill="#979797" stroke="#979797" stroke-dashoffset="1" stroke-width="1.079"/>
    <rect x="25.037" y="10.709" width="12.185" height="1.159" rx=".522" ry=".344" fill="#7b7b7b" stroke="#7b7b7b" stroke-dashoffset="1" stroke-width=".847"/>
    <rect x="25.037" y="40.074" width="12.185" height="1.159" rx=".522" ry=".344" fill="#7b7b7b" stroke="#7b7b7b" stroke-dashoffset="1" stroke-width=".847"/>
    <rect x="48.56" y="9.781" width="11.921" height="1.921" rx=".511" ry=".57" fill="#979797" stroke="#979797" stroke-dashoffset="1" stroke-width="1.079"/>
    <rect x="48.56" y="39.926" width="11.921" height="1.921" rx=".511" ry=".57" fill="#979797" stroke="#979797" stroke-dashoffset="1" stroke-width="1.079"/>
  </g>
  <g transform="translate(.025 -9.242)" fill="red" stroke="red" stroke-linecap="round" stroke-linejoin="round">
    <path d="M4.74 12.806S2 18.163 2 21.238v9.369c0 3.075 2.74 8.432 2.74 8.432.18.404.293.946.938.937H40.5V11.869H5.678m-.938.937c.14-.42.293-.947.938-.937" stroke-width=".937"/>
    <rect x="41.693" y="11.869" width="28.057" height="28.057" rx=".557" ry=".497" stroke-dashoffset="1" stroke-width=".987"/>
  </g>
  <g transform="translate(.025 -9.242)">
    <path d="M5.503 13.532s-2.653 5.06-2.653 7.965v8.85c0 2.905 2.653 7.965 2.653 7.965.173.381.283.894.907.885H40v-26.55H6.41m-.907.885c.135-.396.283-.894.907-.885" fill="#ffa000"/>
    <path d="M4.74 12.806S2 18.163 2 21.238v9.369c0 3.075 2.74 8.432 2.74 8.432.18.404.293.946.938.937H40.5V11.869H5.678m-.938.937c.14-.42.293-.947.938-.937" fill="none" stroke="#000" stroke-linecap="round" stroke-linejoin="round" stroke-width=".2"/>
    <rect x="41.693" y="11.869" width="28.057" height="28.057" rx=".557" ry=".497" fill="none" stroke="#000" stroke-dashoffset="1" stroke-linecap="round" stroke-linejoin="round" stroke-width=".2"/>
  </g>
  <g stroke="#404040" stroke-linecap="round" stroke-linejoin="round">
    <g transform="translate(15.635 19.717)">
      <rect x="-7.535" y="-14.046" width="7" height="6" rx=".5" ry=".5" fill="#7d7d7d" stroke-dashoffset="1" stroke-width=".15"/>
      <path d="M-7.535-13.046h1.232c1.951 0 5.768 1 5.768 1m-7 3h1.232c1.951 0 5.768-1 5.768-1m-5.768-3v4" fill="none" stroke-width=".1"/>
    </g>
    <g transform="translate(15.635 35.717)">
      <rect x="-7.535" y="-14.046" width="7" height="6" rx=".5" ry=".5" fill="#7d7d7d" stroke-dashoffset="1" stroke-width=".15"/>
      <path d="M-7.535-13.046h1.232c1.951 0 5.768 1 5.768 1m-7 3h1.232c1.951 0 5.768-1 5.768-1m-5.768-3v4" fill="none" stroke-width=".1"/>
    </g>
    <g transform="matrix(-1 0 0 1 15.565 35.717)">
      <rect x="-7.535" y="-14.046" width="7" height="6" rx=".5" ry=".5" fill="#7d7d7d" stroke-dashoffset="1" stroke-width=".15"/>
      <path d="M-7.535-13.046h1.232c1.951 0 5.768 1 5.768 1m-7 3h1.232c1.951 0 5.768-1 5.768-1m-5.768-3v4" fill="none" stroke-width=".1"/>
    </g>
    <g transform="matrix(-1 0 0 1 15.565 19.717)">
      <rect x="-7.535" y="-14.046" width="7" height="6" rx=".5" ry=".5" fill="#7d7d7d" stroke-dashoffset="1" stroke-width=".15"/>
      <path d="M-7.535-13.046h1.232c1.951 0 5.768 1 5.768 1m-7 3h1.232c1.951 0 5.768-1 5.768-1m-5.768-3v4" fill="none" stroke-width=".1"/>
    </g>
    <g transform="matrix(-1 0 0 1 15.565 27.717)">
      <rect x="-7.535" y="-14.046" width="7" height="6" rx=".5" ry=".5" fill="#7d7d7d" stroke-dashoffset="1" stroke-width=".15"/>
      <path d="M-7.535-13.046h1.232c1.951 0 5.768 1 5.768 1m-7 3h1.232c1.951 0 5.768-1 5.768-1m-5.768-3v4" fill="none" stroke-width=".1"/>
    </g>
    <g transform="translate(39.635 37)">
      <rect x="-7.535" y="-14.046" width="7" height="6" rx=".5" ry=".5" fill="#7d7d7d" stroke-dashoffset="1" stroke-width=".15"/>
      <path d="M-7.535-13.046h1.232c1.951 0 5.768 1 5.768 1m-7 3h1.232c1.951 0 5.768-1 5.768-1m-5.768-3v4" fill="none" stroke-width=".1"/>
    </g>
    <g transform="translate(39.635 18.45)">
      <rect x="-7.535" y="-14.046" width="7" height="6" rx=".5" ry=".5" fill="#7d7d7d" stroke-dashoffset="1" stroke-width=".15"/>
      <path d="M-7.535-13.046h1.232c1.951 0 5.768 1 5.768 1m-7 3h1.232c1.951 0 5.768-1 5.768-1m-5.768-3v4" fill="none" stroke-width=".1"/>
    </g>
    <g transform="translate(39.635 24.635)">
      <rect x="-7.535" y="-14.046" width="7" height="6" rx=".5" ry=".5" fill="#7d7d7d" stroke-dashoffset="1" stroke-width=".15"/>
      <path d="M-7.535-13.046h1.232c1.951 0 5.768 1 5.768 1m-7 3h1.232c1.951 0 5.768-1 5.768-1m-5.768-3v4" fill="none" stroke-width=".1"/>
    </g>
    <g transform="translate(39.635 30.818)">
      <rect x="-7.535" y="-14.046" width="7" height="6" rx=".5" ry=".5" fill="#7d7d7d" stroke-dashoffset="1" stroke-width=".15"/>
      <path d="M-7.535-13.046h1.232c1.951 0 5.768 1 5.768 1m-7 3h1.232c1.951 0 5.768-1 5.768-1m-5.768-3v4" fill="none" stroke-width=".1"/>
    </g>
  </g>
  <g stroke-width=".15">
    <g transform="translate(8.763 -23.166)">
      <rect transform="rotate(45)" x="33.831" y="29.82" width="4" height="4" rx=".1" ry=".1" fill="#fff" stroke="#000" stroke-dashoffset="1" stroke-linecap="round" stroke-linejoin="round" paint-order="markers fill stroke"/>
      <text x="1.752" y="48.319" font-family="Poppins" font-size="1.411" style="font-variant-caps:normal;font-variant-east-asian:normal;font-variant-ligatures:none;font-variant-numeric:normal;line-height:1.25" xml:space="preserve"><tspan x="1.752" y="48.319" style="font-variant-caps:normal;font-variant-east-asian:normal;font-variant-ligatures:none;font-variant-numeric:normal">Ma</tspan></text>
    </g>
    <g transform="translate(-5.864 -31.166)">
      <rect transform="rotate(45)" x="49.831" y="13.82" width="4" height="4" rx=".1" ry=".1" fill="#fff" stroke="#000" stroke-dashoffset="1" stroke-linecap="round" stroke-linejoin="round" paint-order="markers fill stroke"/>
      <text x="24.38" y="48.319" font-family="Poppins" font-size="1.411" style="font-variant-caps:normal;font-variant-east-asian:normal;font-variant-ligatures:none;font-variant-numeric:normal;line-height:1.25" xml:space="preserve"><tspan x="24.38" y="48.319" style="font-variant-caps:normal;font-variant-east-asian:normal;font-variant-ligatures:none;font-variant-numeric:normal">Me</tspan></text>
    </g>
    <g transform="translate(3.106 -39.166)">
      <rect transform="rotate(45)" x="37.831" y="25.82" width="4" height="4" rx=".1" ry=".1" fill="#1a994e" stroke="#000" stroke-dashoffset="1" stroke-linecap="round" stroke-linejoin="round" paint-order="markers fill stroke"/>
      <path d="m8.493 45.008-.562.563h1.125l-.563-.563"/>
      <circle cx="7.931" cy="44.808" r=".2" paint-order="markers fill stroke"/>
      <circle cx="9.056" cy="44.808" r=".2" paint-order="markers fill stroke"/>
    </g>
    <g transform="translate(5.45 -23.166)">
      <rect transform="rotate(45)" x="41.831" y="21.82" width="4" height="4" rx=".1" ry=".1" fill="#ff2300" stroke="#000" stroke-dashoffset="1" stroke-linecap="round" stroke-linejoin="round" paint-order="markers fill stroke"/>
      <path d="m14.15 45.008-.563.563h1.126l-.563-.563"/>
      <text x="13.675" y="48.326" font-family="Poppins" font-size="1.411" style="font-variant-caps:normal;font-variant-east-asian:normal;font-variant-ligatures:none;font-variant-numeric:normal;line-height:1.25" xml:space="preserve"><tspan x="13.675" y="48.326" style="font-variant-caps:normal;font-variant-east-asian:normal;font-variant-ligatures:none;font-variant-numeric:normal">A</tspan></text>
    </g>
    <g transform="translate(-.207 -39.166)">
      <rect transform="rotate(45)" x="45.831" y="17.82" width="4" height="4" rx=".1" ry=".1" fill="#ff2300" stroke="#000" stroke-dashoffset="1" stroke-linecap="round" stroke-linejoin="round" paint-order="markers fill stroke"/>
      <text x="19.332" y="48.326" font-family="Poppins" font-size="1.411" style="font-variant-caps:normal;font-variant-east-asian:normal;font-variant-ligatures:none;font-variant-numeric:normal;line-height:1.25" xml:space="preserve"><tspan x="19.332" y="48.326" style="font-variant-caps:normal;font-variant-east-asian:normal;font-variant-ligatures:none;font-variant-numeric:normal">A</tspan></text>
    </g>
    <g transform="translate(4.479 -21.882)">
      <rect transform="rotate(45)" x="53.831" y="9.82" width="4" height="4" rx=".1" ry=".1" fill="#0852ae" stroke="#000" stroke-dashoffset="1" stroke-linecap="round" stroke-linejoin="round" paint-order="markers fill stroke"/>
      <path d="m31.121 45.008-.563.563h1.126l-.563-.563"/>
      <text x="30.432" y="48.328" font-family="Poppins" font-size="1.411" style="font-variant-caps:normal;font-variant-east-asian:normal;font-variant-ligatures:none;font-variant-numeric:normal;line-height:1.25" xml:space="preserve"><tspan x="30.432" y="48.328" style="font-variant-caps:normal;font-variant-east-asian:normal;font-variant-ligatures:none;font-variant-numeric:normal">W</tspan></text>
    </g>
    <g transform="translate(-1.178 -40.432)">
      <rect transform="rotate(45)" x="57.831" y="5.82" width="4" height="4" rx=".1" ry=".1" fill="#0852ae" stroke="#000" stroke-dashoffset="1" stroke-linecap="round" stroke-linejoin="round" paint-order="markers fill stroke"/>
      <text x="36.089" y="48.328" font-family="Poppins" font-size="1.411" style="font-variant-caps:normal;font-variant-east-asian:normal;font-variant-ligatures:none;font-variant-numeric:normal;line-height:1.25" xml:space="preserve"><tspan x="36.089" y="48.328" style="font-variant-caps:normal;font-variant-east-asian:normal;font-variant-ligatures:none;font-variant-numeric:normal">W</tspan></text>
    </g>
    <g transform="translate(-6.835 -28.065)">
      <rect transform="rotate(45)" x="61.831" y="1.82" width="4" height="4" rx=".1" ry=".1" fill="#ffc900" stroke="#000" stroke-dashoffset="1" stroke-linecap="round" stroke-linejoin="round" paint-order="markers fill stroke"/>
      <path d="m42.435 45.008-.563.563h1.126l-.563-.563"/>
      <text x="42.021" y="48.33" font-family="Poppins" font-size="1.411" style="font-variant-caps:normal;font-variant-east-asian:normal;font-variant-ligatures:none;font-variant-numeric:normal;line-height:1.25" xml:space="preserve"><tspan x="42.021" y="48.33" style="font-variant-caps:normal;font-variant-east-asian:normal;font-variant-ligatures:none;font-variant-numeric:normal">S</tspan></text>
    </g>
    <g transform="translate(-12.492 -34.248)">
      <rect transform="rotate(45)" x="65.831" y="-2.18" width="4" height="4" rx=".1" ry=".1" fill="#ffc900" stroke="#000" stroke-dashoffset="1" stroke-linecap="round" stroke-linejoin="round" paint-order="markers fill stroke"/>
      <text x="47.677" y="48.33" font-family="Poppins" font-size="1.411" style="font-variant-caps:normal;font-variant-east-asian:normal;font-variant-ligatures:none;font-variant-numeric:normal;line-height:1.25" xml:space="preserve"><tspan x="47.677" y="48.33" style="font-variant-caps:normal;font-variant-east-asian:normal;font-variant-ligatures:none;font-variant-numeric:normal">S</tspan></text>
    </g>
  </g>
</svg>
